<!DOCTYPE svg PUBLIC "-//W3C//DTD SVG 20010904//EN" "http://www.w3.org/TR/2001/REC-SVG-20010904/DTD/svg10.dtd">
<svg version="1.0" xmlns="http://www.w3.org/2000/svg" width="438px" height="260px" viewBox="0 0 4380 2600" preserveAspectRatio="xMidYMid meet">
<g id="layer101" fill="#183d61" stroke="none">
 <path d="M0 1300 l0 -1300 2190 0 2190 0 0 1300 0 1300 -2190 0 -2190 0 0 -1300z"/>
 </g>
<g id="layer102" fill="#ffffff" stroke="none">
 <path d="M0 1300 l0 -1300 2190 0 2190 0 0 1300 0 1300 -2190 0 -2190 0 0 -1300z m4260 1180 l0 -100 -2080 0 -2080 0 0 100 0 100 2080 0 2080 0 0 -100z"/>
 </g>
<g id="layer103" fill="#087f89" stroke="none">
 <path d="M0 1300 l0 -1300 2190 0 2190 0 0 1300 0 1300 -2190 0 -2190 0 0 -1300z m4260 1180 l0 -100 -2080 0 -2080 0 0 100 0 100 2080 0 2080 0 0 -100z m-1758 -224 c230 -63 406 -237 487 -481 69 -211 64 -463 -14 -670 -67 -178 -203 -327 -368 -403 -167 -78 -408 -81 -588 -8 -122 50 -256 168 -328 290 -125 211 -154 545 -68 797 46 134 87 199 187 299 109 109 207 159 380 194 48 9 256 -2 312 -18z m1619 14 c66 -9 211 -52 238 -69 12 -7 9 -27 -14 -121 -23 -93 -30 -110 -44 -104 -90 38 -165 56 -245 61 -151 9 -241 -29 -288 -120 -40 -80 -47 -167 -48 -594 l0 -403 296 -2 295 -3 0 -115 0 -115 -295 -3 -296 -2 0 -241 0 -240 -32 6 c-18 3 -80 14 -138 23 l-105 18 0 789 c0 713 2 797 17 864 52 220 168 336 373 370 70 12 208 12 286 1z m-3761 -810 l0 -780 -140 0 -140 0 0 780 0 780 140 0 140 0 0 -780z m780 0 l0 -780 -140 0 -140 0 0 780 0 780 140 0 140 0 0 -780z m-860 -1070 c49 -14 96 -65 112 -122 41 -156 -119 -281 -263 -205 -59 31 -89 84 -89 157 0 129 109 206 240 170z m780 0 c49 -14 96 -65 112 -122 41 -156 -119 -281 -263 -205 -59 31 -89 84 -89 157 0 129 109 206 240 170z"/>
 <path d="M2370 2003 c8 -27 271 -694 276 -702 2 -2 22 8 46 21 l43 23 3 76 3 76 -170 236 c-94 130 -177 250 -186 267 -19 37 -26 39 -15 3z"/>
 <path d="M2520 1973 c130 -181 183 -253 186 -253 5 0 -12 43 -40 97 -27 53 -106 147 -139 165 -20 10 -21 10 -7 -9z"/>
 <path d="M2034 1837 c-121 -97 -132 -109 -143 -151 -6 -24 -11 -52 -11 -60 0 -16 198 -172 207 -162 7 7 84 457 80 469 -1 5 -61 -38 -133 -96z"/>
 <path d="M2227 1663 c-26 -152 -46 -277 -44 -278 1 -1 57 -43 125 -94 67 -50 129 -94 136 -97 23 -9 117 48 111 66 -36 98 -271 680 -275 680 -3 0 -27 -125 -53 -277z"/>
 <path d="M1866 1413 c9 -120 30 -210 67 -288 34 -69 72 -125 79 -115 8 10 56 323 52 334 -4 11 -175 138 -194 144 -6 2 -8 -25 -4 -75z"/>
 <path d="M2160 1268 c0 -2 -11 -64 -24 -138 -14 -74 -23 -136 -23 -137 4 -3 237 132 237 138 0 11 -189 147 -190 137z"/>
 <path d="M2564 1135 c-18 -14 -18 -16 21 -49 22 -19 42 -32 44 -30 6 6 -30 94 -38 94 -4 0 -16 -7 -27 -15z"/>
 <path d="M2315 990 c-66 -38 -126 -70 -132 -70 -29 0 -10 -18 31 -29 62 -15 131 -14 201 4 57 15 145 62 145 77 0 9 -104 88 -116 88 -5 0 -63 -31 -129 -70z"/>
 </g>

</svg>
